<?xml version="1.0" encoding="UTF-8"?>
<svg version="1.1" xmlns="http://www.w3.org/2000/svg" width="256" height="504">
<path d="M0 0 C3.46613204 2.87223054 6.74864658 5.88837416 10 9 C10.74894531 9.67417969 11.49789062 10.34835938 12.26953125 11.04296875 C28.00666442 25.73279709 38.12233946 47.1851522 39.125 68.6796875 C40.17342984 120.18380336 18.72267973 168.89642835 -15 207 C-15.77085937 207.88171875 -16.54171875 208.7634375 -17.3359375 209.671875 C-30.76278409 224.84185606 -30.76278409 224.84185606 -37 229 C-36.16665131 229.00808685 -35.33330261 229.01617371 -34.47470093 229.02450562 C-26.56165274 229.10294729 -18.64876336 229.19038042 -10.73592186 229.28752708 C-6.66935913 229.33714587 -2.60281817 229.38347411 1.46386719 229.421875 C5.39975572 229.45916869 9.33544513 229.5056375 13.27116013 229.55806351 C14.7611575 229.57637654 16.25119716 229.59156631 17.74126053 229.60334396 C34.83208524 229.74306897 53.31366914 230.49988829 67 242 C69.71735984 245.11697158 70 246.35396652 70 250.5 C68.36709394 256.21517122 64.78681453 258.66734824 59.875 261.625 C50.29787252 266.70087756 39.6775224 268.1675605 28.95336914 268.11352539 C27.79603775 268.11374443 27.79603775 268.11374443 26.61532593 268.1139679 C24.08857317 268.11327638 21.56189598 268.10551994 19.03515625 268.09765625 C17.27396179 268.09578936 15.51276682 268.09436674 13.75157166 268.09336853 C9.13368273 268.08956467 4.51582564 268.07975273 -0.10205078 268.06866455 C-4.82128468 268.05840446 -9.54052377 268.05386108 -14.25976562 268.04882812 C-23.50652435 268.03812842 -32.75325952 268.02107778 -42 268 C-38.15434497 286.17277449 -34.15363517 304.30183519 -29.98046875 322.40234375 C-29.43073391 324.79410795 -28.88120322 327.18591909 -28.3318634 329.57777405 C-26.90875112 335.77206276 -25.48333577 341.96581888 -24.05725098 348.15942383 C-21.75768584 358.14841202 -19.46166517 368.13821541 -17.16579628 378.12805367 C-16.36830289 381.59652529 -15.56975492 385.06475279 -14.77104187 388.53294373 C-14.28508195 390.64557363 -13.79914423 392.75820864 -13.31323242 394.87084961 C-13.0924855 395.82811447 -12.87173859 396.78537933 -12.64430237 397.77165222 C-12.44124481 398.65520386 -12.23818726 399.53875549 -12.02897644 400.44908142 C-11.85333255 401.21190902 -11.67768866 401.97473661 -11.49672222 402.7606802 C-10.96285969 405.16743571 -10.48012262 407.58201235 -10 410 C-9.62742489 411.64258751 -9.24734211 413.28348524 -8.86083984 414.92285156 C-7.61776481 420.21829179 -6.3909621 425.51730809 -5.16992188 430.81787109 C-4.64136463 433.09995272 -4.10785964 435.38089421 -3.56933594 437.66064453 C-2.79034693 440.96346233 -2.03024411 444.27016337 -1.2734375 447.578125 C-1.0308017 448.58780334 -0.78816589 449.59748169 -0.53817749 450.63775635 C1.34269364 458.99212257 1.57666484 466.396597 -2.6328125 474.078125 C-6.28529292 479.2124689 -11.00272746 483.05907787 -17 485 C-19.6908452 485.19658662 -22.27816124 485.29383889 -24.96801758 485.29052734 C-25.75569016 485.29724457 -26.54336273 485.30396179 -27.35490417 485.31088257 C-29.95151123 485.32983567 -32.54785938 485.33378553 -35.14453125 485.3359375 C-36.95668136 485.34236779 -38.76883044 485.34909632 -40.58097839 485.35610962 C-44.37798468 485.36807601 -48.17490002 485.37179115 -51.97192383 485.37060547 C-56.8240553 485.37040243 -61.67560008 485.39769181 -66.52759266 485.43214989 C-70.27067208 485.45445021 -74.01361107 485.45844203 -77.75675011 485.45738602 C-79.54482734 485.45973774 -81.3329087 485.46853706 -83.12092018 485.48405075 C-85.62895721 485.50377268 -88.13573912 485.49784889 -90.64379883 485.48583984 C-91.37394196 485.49707886 -92.10408508 485.50831787 -92.85635376 485.51989746 C-99.25198558 485.44255809 -104.25378657 483.22613407 -109.20703125 479.2109375 C-113.86236442 473.8873205 -117.26897777 468.19947237 -116.89129829 460.89874268 C-116.29697596 454.64254619 -115.17734513 448.65165785 -113.73779297 442.5390625 C-113.50787942 441.54027164 -113.27796587 440.54148077 -113.04108524 439.51242352 C-112.28060607 436.21523942 -111.5114002 432.92015654 -110.7421875 429.625 C-110.20040384 427.2833196 -109.65920221 424.94150446 -109.11854553 422.5995636 C-107.9712606 417.63486569 -106.82026513 412.67104923 -105.66622925 407.70791626 C-103.87218817 399.99186846 -102.08663584 392.2738738 -100.30297852 384.55541992 C-99.70877111 381.9844782 -99.11454812 379.41354008 -98.52030945 376.84260559 C-98.22734167 375.57508768 -97.93437389 374.30756977 -97.63252831 373.00164223 C-96.74705038 369.17210602 -95.86075894 365.34275899 -94.97419739 361.51347351 C-90.41268966 341.80911214 -85.88656506 322.09698046 -81.40616608 302.37402344 C-80.93907049 300.31940811 -80.47101494 298.26501386 -80.00262451 296.21069336 C-79.15458146 292.4912024 -78.30939965 288.7710657 -77.46484375 285.05078125 C-77.22443863 283.9968367 -76.98403351 282.94289215 -76.73634338 281.85700989 C-76.51905075 280.89655258 -76.30175812 279.93609528 -76.07788086 278.9465332 C-75.89204941 278.12820511 -75.70621796 277.30987701 -75.51475525 276.4667511 C-74.9282033 273.65594407 -74.45575877 270.83468034 -74 268 C-75.31186783 268.00999275 -75.31186783 268.00999275 -76.65023804 268.02018738 C-84.9739386 268.08080323 -93.29756291 268.12622723 -101.62143517 268.15543652 C-105.89876246 268.17095908 -110.17590436 268.19194535 -114.453125 268.22631836 C-118.59640902 268.25939897 -122.73951703 268.27695318 -126.88292313 268.28463173 C-128.44782907 268.29008941 -130.01272761 268.30074033 -131.57755661 268.31719017 C-147.83730602 268.48100253 -168.27322818 267.8922682 -181.6875 257.4375 C-185.06450284 253.87795647 -186.02786559 252.53260769 -185.9375 247.5625 C-184.50385532 242.11465021 -182.0782435 240.25460783 -177.45703125 237.46484375 C-162.13494734 229.22694659 -145.94135337 228.83561045 -128.92578125 228.90234375 C-127.50660757 228.90421371 -126.08743323 228.90563488 -124.66825867 228.90663147 C-120.9710607 228.9104112 -117.27390334 228.92020147 -113.57672119 228.93133545 C-109.78878325 228.94164846 -106.00083862 228.94615007 -102.21289062 228.95117188 C-94.80857543 228.96182882 -87.40429345 228.97884912 -80 229 C-80.86085205 228.21423584 -81.7217041 227.42847168 -82.60864258 226.61889648 C-94.57195194 215.66333124 -94.57195194 215.66333124 -99.6875 210.0625 C-100.22093018 209.48169678 -100.75436035 208.90089355 -101.30395508 208.30249023 C-110.64612695 197.99412752 -118.50825018 186.69822372 -126 175 C-126.60457031 174.07316406 -127.20914063 173.14632812 -127.83203125 172.19140625 C-145.21519039 144.14223378 -154.02780376 109.81162306 -155 77 C-155.07734375 75.61941406 -155.07734375 75.61941406 -155.15625 74.2109375 C-155.92753741 52.42206831 -146.73828661 31.78943669 -132.5 15.6875 C-131.00866395 14.11672852 -129.50890237 12.55390472 -128 11 C-127.32710937 10.25363281 -126.65421875 9.50726562 -125.9609375 8.73828125 C-115.5059598 -2.48026224 -102.22223209 -9.67801532 -88 -15 C-86.90300781 -15.43441406 -85.80601563 -15.86882813 -84.67578125 -16.31640625 C-56.37879389 -25.74873537 -23.21162301 -17.78122904 0 0 Z M-107 34 C-107.67546875 34.65613281 -108.3509375 35.31226562 -109.046875 35.98828125 C-119.08300081 46.35746433 -123.39148132 60.06451218 -123.3125 74.1875 C-123.30686035 75.24686768 -123.3012207 76.30623535 -123.29541016 77.39770508 C-122.57845733 124.76983089 -99.67988002 165.89056777 -67 199 C-64.40459539 201.42795915 -61.7631362 203.76511043 -59 206 C-48.65528333 198.81225408 -40.80824179 189.79885281 -33 180 C-32.35417969 179.23300781 -31.70835937 178.46601563 -31.04296875 177.67578125 C-4.51652406 145.85485269 9.6959585 104.38700326 7 63 C6.22626788 58.60520154 5.02595342 54.9635475 3 51 C2.57589844 50.14921875 2.15179688 49.2984375 1.71484375 48.421875 C-1.92973476 41.80275191 -6.73156362 36.37451228 -12 31 C-12.66515625 30.29875 -13.3303125 29.5975 -14.015625 28.875 C-26.40884333 16.76559583 -43.35485942 11.45548204 -60.36230469 11.65234375 C-79.04764484 12.25077858 -94.27088999 20.78281062 -107 34 Z " fill="#000000" transform="translate(186,19)"/>
<path d="M0 0 C3 1 3 1 3 1 Z " fill="#000000" transform="translate(150,247)"/>
<path d="M0 0 C0.66 0.66 1.32 1.32 2 2 C1.34 2 0.68 2 0 2 C0 1.34 0 0.68 0 0 Z " fill="#000000" transform="translate(103,246)"/>
<path d="" fill="#FFFFFF" transform="translate(0,0)"/>
<path d="" fill="#FFFFFF" transform="translate(0,0)"/>
<path d="" fill="#FFFFFF" transform="translate(0,0)"/>
<path d="" fill="#FFFFFF" transform="translate(0,0)"/>
<path d="" fill="#FFFFFF" transform="translate(0,0)"/>
<path d="" fill="#FFFFFF" transform="translate(0,0)"/>
<path d="" fill="#FFFFFF" transform="translate(0,0)"/>
<path d="" fill="#FFFFFF" transform="translate(0,0)"/>
<path d="" fill="#FFFFFF" transform="translate(0,0)"/>
<path d="" fill="#FFFFFF" transform="translate(0,0)"/>
<path d="" fill="#FFFFFF" transform="translate(0,0)"/>
<path d="" fill="#FFFFFF" transform="translate(0,0)"/>
<path d="" fill="#FFFFFF" transform="translate(0,0)"/>
<path d="" fill="#FFFFFF" transform="translate(0,0)"/>
<path d="" fill="#FFFFFF" transform="translate(0,0)"/>
<path d="" fill="#FFFFFF" transform="translate(0,0)"/>
<path d="" fill="#FFFFFF" transform="translate(0,0)"/>
<path d="" fill="#FFFFFF" transform="translate(0,0)"/>
<path d="" fill="#FFFFFF" transform="translate(0,0)"/>
<path d="" fill="#FFFFFF" transform="translate(0,0)"/>
<path d="" fill="#FFFFFF" transform="translate(0,0)"/>
<path d="" fill="#FFFFFF" transform="translate(0,0)"/>
<path d="" fill="#FFFFFF" transform="translate(0,0)"/>
<path d="" fill="#FFFFFF" transform="translate(0,0)"/>
<path d="" fill="#FFFFFF" transform="translate(0,0)"/>
<path d="" fill="#FFFFFF" transform="translate(0,0)"/>
<path d="" fill="#FFFFFF" transform="translate(0,0)"/>
<path d="" fill="#FFFFFF" transform="translate(0,0)"/>
<path d="" fill="#000000" transform="translate(0,0)"/>
<path d="" fill="#FFFFFF" transform="translate(0,0)"/>
<path d="" fill="#FFFFFF" transform="translate(0,0)"/>
<path d="" fill="#FFFFFF" transform="translate(0,0)"/>
<path d="" fill="#FFFFFF" transform="translate(0,0)"/>
<path d="" fill="#FFFFFF" transform="translate(0,0)"/>
<path d="" fill="#000000" transform="translate(0,0)"/>
<path d="" fill="#FFFFFF" transform="translate(0,0)"/>
<path d="" fill="#FFFFFF" transform="translate(0,0)"/>
<path d="" fill="#FFFFFF" transform="translate(0,0)"/>
<path d="" fill="#FFFFFF" transform="translate(0,0)"/>
<path d="" fill="#FFFFFF" transform="translate(0,0)"/>
<path d="" fill="#FFFFFF" transform="translate(0,0)"/>
<path d="" fill="#FFFFFF" transform="translate(0,0)"/>
<path d="" fill="#FFFFFF" transform="translate(0,0)"/>
<path d="" fill="#FFFFFF" transform="translate(0,0)"/>
<path d="" fill="#FFFFFF" transform="translate(0,0)"/>
<path d="" fill="#FFFFFF" transform="translate(0,0)"/>
<path d="" fill="#FFFFFF" transform="translate(0,0)"/>
<path d="" fill="#FFFFFF" transform="translate(0,0)"/>
<path d="" fill="#FFFFFF" transform="translate(0,0)"/>
<path d="" fill="#FFFFFF" transform="translate(0,0)"/>
<path d="" fill="#FFFFFF" transform="translate(0,0)"/>
<path d="" fill="#FFFFFF" transform="translate(0,0)"/>
<path d="" fill="#00FFFF" transform="translate(0,0)"/>
<path d="" fill="#FFFFFF" transform="translate(0,0)"/>
<path d="" fill="#FFFFFF" transform="translate(0,0)"/>
<path d="" fill="#FFFFFF" transform="translate(0,0)"/>
<path d="" fill="#FFFFFF" transform="translate(0,0)"/>
<path d="" fill="#FFFFFF" transform="translate(0,0)"/>
<path d="" fill="#FFFFFF" transform="translate(0,0)"/>
<path d="" fill="#FFFFFF" transform="translate(0,0)"/>
<path d="" fill="#FFFFFF" transform="translate(0,0)"/>
<path d="" fill="#000000" transform="translate(0,0)"/>
<path d="" fill="#000000" transform="translate(0,0)"/>
<path d="" fill="#000000" transform="translate(0,0)"/>
</svg>
