<svg xmlns="http://www.w3.org/2000/svg" viewBox="0 0 256 406">
<path d="M0 0 C2.48162083 1.9313972 4.85981332 3.93248974 7.21484375 6.015625 C7.82714844 6.53382812 8.43945312 7.05203125 9.0703125 7.5859375 C21.02040038 18.46954157 28.09669221 34.38815316 29.40234375 50.30078125 C30.44194718 88.18133136 13.59787703 124.29829617 -11.6328125 151.74609375 C-14.62321535 154.89931345 -17.67612759 157.97982949 -20.78515625 161.015625 C-10.5001695 159.81770245 -0.29799575 158.34795212 9.90441322 156.58181381 C12.214158 156.18260324 14.52479616 155.78897106 16.83573914 155.39675903 C23.39259883 154.28337927 29.94834343 153.16366044 36.50219727 152.03271484 C40.54586641 151.33533061 44.59097875 150.64690332 48.63710594 149.96393204 C50.16090015 149.70495525 51.68413853 149.44268277 53.20675087 149.17684555 C74.90678817 145.39061524 74.90678817 145.39061524 81.77734375 148.765625 C84.58528764 151.3575732 86.00466267 153.30820669 86.47554016 157.13340759 C86.48245125 158.2699453 86.48245125 158.2699453 86.48950195 159.42944336 C86.49903397 160.29391586 86.50856598 161.15838837 86.51838684 162.04905701 C86.51701973 163.43823082 86.51701973 163.43823082 86.515625 164.85546875 C86.51991013 165.81457657 86.52419525 166.77368439 86.52861023 167.76185608 C86.53434809 169.78841361 86.5348578 171.81499173 86.53051758 173.84155273 C86.52735882 176.93834652 86.55081955 180.03418374 86.57617188 183.13085938 C86.57844507 185.1015613 86.57914827 187.07226578 86.578125 189.04296875 C86.58733475 189.96706039 86.59654449 190.89115204 86.60603333 191.84324646 C86.5709667 196.72776887 86.40340535 200.05555101 83.21484375 204.015625 C79.38152624 207.48956899 75.74591658 207.31822736 70.83547974 207.25878906 C62.65755623 206.70955486 54.59230807 205.12428909 46.5234375 203.734375 C44.52626816 203.39724071 42.52895614 203.06095069 40.5315094 202.72546387 C35.30483668 201.84551408 30.07999703 200.95513361 24.85552979 200.06219482 C18.48363624 198.97493836 12.10983643 197.89892504 5.73610783 196.82248688 C0.78386055 195.98608614 -4.16799865 195.14759444 -9.11878967 194.3026123 C-10.0245575 194.14860458 -10.93032532 193.99459686 -11.86354065 193.83592224 C-13.55824633 193.54776703 -15.25274258 193.25837643 -16.94699097 192.96754456 C-20.84404079 192.2691619 -20.84404079 192.2691619 -24.78515625 192.015625 C-24.60992935 192.88069798 -24.43470245 193.74577095 -24.25416565 194.63705826 C-19.9847849 215.71856725 -15.72829361 236.802643 -11.48600769 257.88962173 C-9.43413423 268.0872008 -7.37796049 278.28387685 -5.31152344 288.47851562 C-3.50973383 297.36758947 -1.71615386 306.25827413 0.06772327 315.15096068 C1.01192851 319.85638837 1.96013195 324.5609274 2.91818237 329.26355743 C3.82127386 333.69708285 4.71330581 338.13269516 5.59719467 342.57008743 C5.92209781 344.19132335 6.25090552 345.81178288 6.58407974 347.43133926 C11.81622374 372.89998096 11.81622374 372.89998096 5.21484375 383.015625 C1.37687341 387.88908734 -2.69616917 391.38270896 -8.78515625 393.015625 C-13.7276485 393.47391439 -18.66542898 393.46291327 -23.625 393.44921875 C-25.07556908 393.45378679 -26.526136 393.45909421 -27.97669983 393.46510315 C-31.00856347 393.47400906 -34.04016334 393.4716402 -37.07202148 393.46166992 C-40.93995749 393.45018392 -44.80698001 393.47039777 -48.6747961 393.49958706 C-51.66815384 393.51801326 -54.66129524 393.51764394 -57.65469551 393.51194954 C-59.07992395 393.5117971 -60.50516778 393.5177767 -61.93034172 393.53024101 C-71.3472178 393.60100771 -77.93719097 393.24797564 -85.24609375 386.8671875 C-92.31208171 378.64756885 -93.36149984 372.72714958 -92.78515625 362.015625 C-92.0742495 356.93117941 -91.04724319 351.92129082 -89.99609375 346.8984375 C-89.69695765 345.42532075 -89.39889195 343.9519863 -89.10180664 342.47845459 C-88.46577665 339.33494711 -87.82259758 336.19302478 -87.17352295 333.05218506 C-86.1455164 328.0776047 -85.1332869 323.09989532 -84.12353516 318.12158203 C-82.89749777 312.08193307 -81.66778473 306.04305645 -80.43327904 300.00513268 C-78.21102225 289.13378599 -76.0199279 278.25643801 -73.84765625 267.375 C-73.69066883 266.58866558 -73.53368141 265.80233116 -73.3719368 264.99216843 C-72.59866656 261.11806135 -71.82594412 257.24384529 -71.05352783 253.36956787 C-69.77473609 246.95646342 -68.49159234 240.54422983 -67.2085762 234.13196945 C-66.56171588 230.89888933 -65.91515017 227.66575029 -65.26855469 224.43261719 C-63.10742188 213.62695312 -60.94628906 202.82128906 -58.78515625 192.015625 C-63.99426019 192.82323427 -69.20234755 193.63721672 -74.41015625 194.453125 C-75.22650543 194.58068176 -76.04285461 194.70823853 -76.88394165 194.83966064 C-88.25177954 196.61910281 -99.60319544 198.48118635 -110.9453125 200.41796875 C-113.37483106 200.83084693 -115.8043558 201.24368872 -118.23388672 201.65649414 C-121.83695126 202.26907019 -125.43932142 202.8848308 -129.0401001 203.51071167 C-132.43687746 204.10105244 -135.83539663 204.68029966 -139.234375 205.2578125 C-140.74028954 205.52458046 -140.74028954 205.52458046 -142.27662659 205.79673767 C-158.66450684 208.54857559 -158.66450684 208.54857559 -165.34765625 205.265625 C-168.15279937 202.67626212 -169.56886324 200.72303901 -170.05258179 196.90457153 C-170.06020538 196.14989594 -170.06782898 195.39522034 -170.07568359 194.61767578 C-170.0884433 193.75643097 -170.101203 192.89518616 -170.11434937 192.00784302 C-170.11657501 191.0848642 -170.11880066 190.16188538 -170.12109375 189.2109375 C-170.12775055 188.25420135 -170.13440735 187.29746521 -170.14126587 186.31173706 C-170.15138267 184.28938721 -170.15608319 182.26700404 -170.15576172 180.24462891 C-170.16013078 177.15861683 -170.19644947 174.07403999 -170.234375 170.98828125 C-170.24024426 169.02083821 -170.24421292 167.0533884 -170.24609375 165.0859375 C-170.26046478 164.16700714 -170.27483582 163.24807678 -170.28964233 162.30130005 C-170.25015844 156.73445909 -169.63965255 153.34631979 -165.78515625 149.015625 C-156.46694857 143.30819406 -141.53330959 148.33261065 -131.44140625 150.078125 C-129.58115855 150.39286401 -127.72076345 150.70673295 -125.86022949 151.01977539 C-120.99397784 151.84058892 -116.12954486 152.67169744 -111.26550293 153.50549316 C-103.45371932 154.84259919 -95.63911717 156.16315513 -87.82475281 157.4850769 C-85.09934279 157.94753619 -82.37463468 158.41395814 -79.65002441 158.88110352 C-77.98739585 159.16428268 -76.32475801 159.44740743 -74.66210938 159.73046875 C-73.90471466 159.86137909 -73.14731995 159.99228943 -72.36697388 160.12716675 C-69.46411526 160.61917169 -66.73578488 161.015625 -63.78515625 161.015625 C-64.91050781 159.94248047 -64.91050781 159.94248047 -66.05859375 158.84765625 C-95.27741434 130.57494145 -111.5734255 93.32341706 -113.09765625 52.765625 C-112.59072568 36.31854444 -105.64817349 22.10018635 -94.78515625 10.015625 C-94.26695313 9.40460937 -93.74875 8.79359375 -93.21484375 8.1640625 C-69.3828067 -18.06315415 -27.97456243 -19.93138529 0 0 Z M-72.53515625 31.765625 C-73.65082943 33.15696568 -74.73481001 34.57433102 -75.78515625 36.015625 C-76.29433594 36.69753906 -76.80351563 37.37945312 -77.328125 38.08203125 C-84.79229128 50.10414781 -81.06409925 67.32480564 -78.0390625 80.296875 C-72.30621222 102.81068131 -59.31269238 120.27897745 -43.78515625 137.015625 C-35.59027197 135.73230979 -29.89827149 126.1647481 -25.22265625 119.890625 C-9.71595749 98.53696173 -0.12916866 72.6767381 -2.78515625 46.015625 C-3.82810264 42.09239208 -5.35370494 39.2457282 -7.78515625 36.015625 C-8.36652344 35.22929688 -8.94789063 34.44296875 -9.546875 33.6328125 C-15.91889047 25.80027421 -24.7510377 19.88351476 -34.78515625 18.015625 C-49.57580463 16.59277165 -62.30022176 20.82483296 -72.53515625 31.765625 Z " fill="currentColor" transform="translate(169.78515625,12.984375)"/>
<path d="M0 0 C2 1 2 1 2 1 Z " fill="currentColor" transform="translate(150,173)"/>
</svg>
