<?xml version="1.0" encoding="UTF-8"?>
<svg version="1.1" xmlns="http://www.w3.org/2000/svg" width="1000" height="1410">
<path d="M0 0 C0.84165836 -0.00226556 1.68331673 -0.00453111 2.55047989 -0.00686532 C5.3809978 -0.0132139 8.21146793 -0.01237541 11.04199219 -0.0115509 C13.06709861 -0.01454182 15.09220447 -0.01794419 17.11730957 -0.02172852 C22.62542519 -0.03057855 28.13352529 -0.03290702 33.64164734 -0.0335443 C38.23440338 -0.03449248 42.82715579 -0.03816963 47.41991043 -0.0417164 C58.2509708 -0.04986439 69.08202286 -0.05230028 79.91308594 -0.05158997 C91.10060224 -0.05098873 102.28807039 -0.06154886 113.47557449 -0.07733363 C123.06965996 -0.09038978 132.66372965 -0.09577469 142.25782394 -0.09513456 C147.99290406 -0.09487905 153.72794139 -0.09775942 159.4630127 -0.10831261 C164.85394448 -0.11796151 170.24479226 -0.11809492 175.63572693 -0.11079597 C177.61791608 -0.1097462 179.60011037 -0.11213614 181.58229065 -0.11815643 C184.28087211 -0.12582389 186.97915967 -0.12126663 189.67773438 -0.11352539 C190.86386007 -0.12124074 190.86386007 -0.12124074 192.07394791 -0.12911195 C195.87036776 -0.10492059 197.60033385 -0.02530946 200.83886719 2.13371277 C202.28912096 14.90828851 190.66260391 27.51827673 183.83886719 37.63371277 C154.97361056 80.46004307 150.24947611 131.92515361 143.84868622 182.1578064 C143.59469265 184.15050917 143.33926378 186.14302883 143.08380127 188.13554382 C142.09793945 195.87118083 141.16517818 203.61119367 140.28024292 211.35902405 C139.99614262 213.78867781 139.69924228 216.2168867 139.38650513 218.64302063 C135.79918585 246.4809031 136.55767919 274.45411896 136.74945068 302.46574402 C136.82074227 313.00849239 136.87487132 323.5512538 136.91180611 334.09418297 C136.92847022 337.75659016 136.95797842 341.41874043 136.98851013 345.08105469 C136.99895883 347.30213692 137.00891996 349.52322152 137.01831055 351.74430847 C137.03021423 352.75858414 137.04211792 353.7728598 137.05438232 354.81787109 C137.05596848 355.74337769 137.05755463 356.66888428 137.05918884 357.62243652 C137.06492888 358.42615849 137.07066893 359.22988047 137.07658291 360.05795765 C136.83886719 362.13371277 136.83886719 362.13371277 134.83886719 365.13371277 C132.65136719 366.07121277 132.65136719 366.07121277 129.83886719 366.13371277 C96.58230002 349.40773069 76.85155824 300.27049322 65.87548828 267.3021698 C49.80552869 218.18395604 39.59215895 168.13311683 35.80761719 116.61027527 C35.72105362 115.43337631 35.63449005 114.25647736 35.54530334 113.04391479 C35.11788205 107.1746907 34.70752457 101.30484669 34.32104492 95.43278503 C32.42647523 67.5104182 25.95113578 48.59317452 4.83886719 29.13371277 C2.97719186 27.59659729 1.10212632 26.07555199 -0.78613281 24.57121277 C-13.61246183 14.22622194 -13.61246183 14.22622194 -14.84863281 7.25871277 C-14.14815859 4.07473904 -13.83625569 2.91712802 -11.16113281 1.13371277 C-7.40620296 -0.11793051 -3.91113394 -0.00765955 0 0 Z " fill="#000000" transform="translate(241.1611328125,519.8662872314453)"/>
<path d="M0 0 C0.84024723 -0.00382555 1.68049446 -0.00765109 2.54620373 -0.01159257 C5.37210284 -0.02194165 8.19779949 -0.0179268 11.02371216 -0.01396179 C13.04557484 -0.01830724 15.06743587 -0.02348982 17.08929443 -0.02944946 C22.58929558 -0.04286944 28.08922813 -0.04341475 33.58924246 -0.04088616 C38.1768433 -0.03981837 42.76443016 -0.04469495 47.35202801 -0.04949158 C58.17358956 -0.06059738 68.99511641 -0.06101831 79.81668091 -0.05497742 C90.98828139 -0.04893709 102.15975595 -0.06124774 113.33133495 -0.08254749 C122.91526655 -0.10014977 132.49915803 -0.10616697 142.08310521 -0.10290974 C147.81044188 -0.10109438 153.53768876 -0.10375818 159.26501083 -0.11762428 C164.65106372 -0.13017547 170.03692004 -0.12828417 175.42296982 -0.11521339 C177.4010932 -0.11284206 179.37923029 -0.11560214 181.35733795 -0.12383652 C184.05534961 -0.13425873 186.75269617 -0.12623978 189.45068359 -0.11352539 C190.62807077 -0.12458682 190.62807077 -0.12458682 191.82924354 -0.13587171 C196.32468173 -0.09122894 199.32975574 0.3798311 202.85232544 3.26069641 C204.03982544 6.44819641 204.03982544 6.44819641 203.85232544 10.26069641 C200.43005753 17.26208618 193.64803428 22.29423363 187.85232544 27.26069641 C185.16354341 29.57035519 182.49217966 31.89517998 179.85232544 34.26069641 C179.13302856 34.90136047 178.41373169 35.54202454 177.67263794 36.20210266 C157.04187688 55.58359618 156.0314399 79.98609679 154.22125244 106.6431427 C152.75954392 127.94645176 151.14838158 149.15098334 147.85232544 170.26069641 C147.69215942 171.29065735 147.53199341 172.32061829 147.36697388 173.38179016 C142.12615028 205.76445366 133.35245235 238.20962343 122.85232544 269.26069641 C122.34040649 270.77808411 122.34040649 270.77808411 121.81814575 272.3261261 C111.21538172 303.38360046 91.49911794 349.90563107 60.60232544 365.94819641 C57.85232544 366.26069641 57.85232544 366.26069641 55.21394348 365.40682983 C52.47857064 362.92104468 52.47499838 362.43115286 52.26451111 358.89886475 C52.25608175 357.01086986 52.27563353 355.12263439 52.31643677 353.23506165 C52.31891922 352.20349442 52.32140167 351.17192719 52.32395935 350.10910034 C52.33769496 346.67860118 52.38644255 343.24946798 52.43435669 339.81929016 C52.44877772 337.41965068 52.46067601 335.01999484 52.47016907 332.62033081 C52.50067438 326.27272403 52.55930305 319.92570729 52.62557983 313.5783844 C52.7274891 303.50268015 52.79239149 293.42676446 52.84738731 283.35070992 C52.87110513 279.86717511 52.90985155 276.38406629 52.95066833 272.9006958 C53.08885476 257.59236706 52.30217796 242.49933861 50.85232544 227.26069641 C50.78222197 226.52057627 50.71211849 225.78045612 50.63989067 225.0179081 C50.26379309 221.13851866 49.83220234 217.26761818 49.37185669 213.39741516 C49.1717524 211.6711087 49.1717524 211.6711087 48.96760559 209.90992737 C48.54059798 206.25511485 48.10411699 202.60155161 47.66482544 198.94819641 C47.51303833 197.67743256 47.36125122 196.4066687 47.2048645 195.09739685 C40.15201873 136.05238394 40.15201873 136.05238394 26.91482544 78.13569641 C26.72267456 77.44532288 26.53052368 76.75494934 26.33255005 76.0436554 C21.91736878 61.79954108 13.50603137 49.18303323 5.22732544 36.94819641 C-12.51113214 10.59293715 -12.51113214 10.59293715 -11.14767456 2.26069641 C-7.36756158 -0.25937891 -4.37810209 -0.02096092 0 0 Z " fill="#000000" transform="translate(570.1476745605469,519.7393035888672)"/>
</svg>
