<?xml version="1.0" standalone="no"?>
<!DOCTYPE svg PUBLIC "-//W3C//DTD SVG 20010904//EN"
 "http://www.w3.org/TR/2001/REC-SVG-20010904/DTD/svg10.dtd">
<svg version="1.0" xmlns="http://www.w3.org/2000/svg"
 width="218.000000pt" height="308.000000pt" viewBox="0 0 218.000000 308.000000"
 preserveAspectRatio="xMidYMid meet">

<g transform="translate(0.000000,308.000000) scale(0.100000,-0.100000)"
fill="#000000" stroke="none">
<path d="M1855 2748 c-84 -31 -125 -96 -125 -196 0 -58 -1 -62 -23 -62 -50 0
-60 -19 -55 -108 4 -68 10 -89 34 -129 112 -181 376 -169 465 22 22 47 27 183
7 203 -8 8 -64 12 -185 12 l-173 0 0 45 c0 90 42 145 112 145 47 0 84 -31 102
-85 12 -34 19 -40 45 -43 30 -3 31 -2 31 33 0 50 -34 111 -78 139 -44 29 -115
40 -157 24z m87 -370 c23 -20 28 -43 13 -71 -7 -15 -15 -37 -17 -49 -2 -17
-10 -23 -28 -23 -18 0 -26 6 -28 23 -2 12 -10 34 -17 49 -20 38 4 83 45 83 9
0 23 -6 32 -12z"/>
<path d="M503 1934 c-4 -10 6 -25 29 -45 45 -37 64 -84 73 -184 15 -169 67
-370 120 -460 13 -24 39 -55 57 -70 l33 -28 6 179 c10 288 40 439 109 547 51
80 59 77 -195 77 -196 0 -226 -2 -232 -16z"/>
<path d="M1225 1940 c-4 -6 3 -25 14 -43 44 -70 62 -109 76 -169 26 -115 45
-300 45 -440 0 -76 4 -138 8 -138 4 0 24 17 44 38 76 77 138 269 162 492 14
140 22 161 74 206 24 21 33 36 29 47 -6 15 -30 17 -226 17 -140 0 -222 -4
-226 -10z"/>
</g>
</svg>
