<?xml version="1.0" encoding="UTF-8"?>
<svg version="1.1" xmlns="http://www.w3.org/2000/svg" width="1000" height="2013">
<path d="M0 0 C1.24979141 -0.00570007 2.49958282 -0.01140015 3.7872467 -0.01727295 C6.42871264 -0.02667775 9.07019008 -0.03323884 11.71166992 -0.03710938 C15.65235034 -0.0435697 19.59264514 -0.07772592 23.53320312 -0.109375 C40.80394425 -0.18168794 57.66810123 0.90806426 74.78515625 3.203125 C75.57026581 3.30790161 76.35537537 3.41267822 77.16427612 3.52062988 C81.22162672 4.07725588 85.25444876 4.7297447 89.28515625 5.453125 C90.47270508 5.66437012 91.66025391 5.87561523 92.88378906 6.09326172 C126.45136149 12.26696497 158.95849067 22.56467311 189.78515625 37.203125 C190.65350098 37.60853516 191.5218457 38.01394531 192.41650391 38.43164062 C229.20679195 55.68657518 260.74435381 80.24214392 289.47265625 108.703125 C290.35203857 109.569375 291.2314209 110.435625 292.13745117 111.328125 C298.1212686 117.30462931 303.55327582 123.56153129 308.78515625 130.203125 C309.36595947 130.9353125 309.9467627 131.6675 310.54516602 132.421875 C340.36710742 170.31051824 361.07501247 213.12466964 371.78515625 260.203125 C371.99366211 261.11723145 372.20216797 262.03133789 372.41699219 262.97314453 C373.75893684 269.0186844 374.85058653 275.08190964 375.78515625 281.203125 C376.00945312 282.65404541 376.00945312 282.65404541 376.23828125 284.13427734 C386.57522077 354.40987156 371.50816563 425.96900926 342.78515625 490.203125 C342.2132959 491.49355713 342.2132959 491.49355713 341.62988281 492.81005859 C328.20867732 522.89019974 310.27937729 551.43896141 289.78515625 577.203125 C289.28757812 577.8321875 288.79 578.46125 288.27734375 579.109375 C281.25360692 587.96689534 273.96969903 596.46124003 266.20849609 604.67822266 C264.8233579 606.16219747 263.46619858 607.66676788 262.1171875 609.18359375 C254.7960736 617.3698319 246.93566914 624.84753099 238.78515625 632.203125 C238.18719238 632.74582031 237.58922852 633.28851562 236.97314453 633.84765625 C225.34837833 644.34538525 212.87763104 653.71729481 200.13562012 662.81176758 C199.5075219 663.26014481 198.87942368 663.70852203 198.23229218 664.17048645 C197.75473732 664.51125717 197.27718246 664.85202789 196.78515625 665.203125 C213.11158892 665.25013146 229.43799918 665.28525266 245.76448345 665.30674934 C253.34748808 665.317002 260.93045033 665.33094522 268.51342773 665.35400391 C275.13331202 665.37412414 281.75316558 665.38688492 288.3730796 665.39130199 C291.86867416 665.39387833 295.36418091 665.39980329 298.85974693 665.41458511 C340.37040658 665.58297208 379.43463492 662.17116262 410.53515625 631.765625 C414.88224308 627.29813781 418.86670784 622.61255549 422.71484375 617.7109375 C427.32443167 612.12724798 431.32148944 607.73340396 438.77734375 606.84765625 C445.00260029 606.58168109 449.71128593 606.84595682 454.90625 610.42578125 C460.31550879 615.54264768 464.31886316 621.32342539 468.09765625 627.703125 C468.57275635 628.49501221 469.04785645 629.28689941 469.53735352 630.1027832 C470.5034885 631.71376275 471.46730751 633.32613368 472.42871094 634.93994141 C473.62672883 636.93879416 474.84350989 638.92352495 476.07421875 640.90234375 C486.54579655 657.8252459 495.68470883 675.60555518 502.78515625 694.203125 C503.06053223 694.91678223 503.3359082 695.63043945 503.61962891 696.36572266 C514.74910777 725.74244837 520.37782976 761.99863302 507.09912109 791.54833984 C502.57574108 800.99869741 496.82261778 810.09689074 486.78515625 814.203125 C479.43324012 815.29120859 472.85807292 814.62960648 466.78515625 810.203125 C464.53452716 808.30989194 462.72962466 806.43926367 460.78515625 804.203125 C460.78515625 803.543125 460.78515625 802.883125 460.78515625 802.203125 C460.181875 801.92855469 459.57859375 801.65398438 458.95703125 801.37109375 C456.78515625 800.203125 456.78515625 800.203125 454.03515625 797.515625 C431.43294631 777.95236766 389.56403434 774.54249663 360.84765625 770.390625 C359.83403015 770.24170807 359.83403015 770.24170807 358.79992676 770.08978271 C335.58169016 766.72598235 312.41072295 765.85586934 288.97265625 765.953125 C287.62539729 765.95648954 286.27813772 765.95962024 284.93087769 765.96252441 C200.63978895 764.96696825 200.63978895 764.96696825 126.78515625 800.203125 C125.955 800.89019531 125.12484375 801.57726562 124.26953125 802.28515625 C107.72910996 816.36480934 98.40909687 835.30557918 96.03515625 856.703125 C95.92355887 858.53495512 95.842557 860.36879659 95.78515625 862.203125 C95.74519531 863.36714844 95.70523438 864.53117188 95.6640625 865.73046875 C95.24323571 890.50974032 97.59715133 921.05912752 113.3671875 941.28515625 C114.78515625 943.203125 114.78515625 943.203125 115.78515625 946.203125 C120.26043675 948.97865954 125.60333061 950.59988624 130.47265625 952.5703125 C133.66934412 954.14603836 135.54939988 955.46217368 137.78515625 958.203125 C141.11358368 968.18840728 138.28493954 979.93156596 136.22265625 989.953125 C135.92293371 991.45839866 135.62329582 992.96368919 135.32373047 994.46899414 C131.8516745 1011.65425295 127.82977919 1028.72503714 123.91213989 1045.81285477 C110.57076062 1104.01397876 97.59305176 1163.10892282 97.59985352 1223.12084961 C97.59768088 1225.2415827 97.57944392 1227.36178059 97.56054688 1229.48242188 C97.46778085 1250.43275477 100.10541534 1270.86676168 103.81051636 1291.45495605 C104.49245638 1295.25083848 105.15827036 1299.0492749 105.82055664 1302.84863281 C107.62846146 1313.19315388 109.4589299 1323.53256971 111.40170288 1333.85269165 C115.52676016 1355.78224098 118.08583781 1377.42168067 119.17456055 1399.71826172 C119.22473107 1400.7345292 119.2749016 1401.75079668 119.32659245 1402.79786015 C119.4301376 1404.90496258 119.53304734 1407.01209633 119.63532257 1409.11926079 C119.73151272 1411.09903831 119.82855102 1413.0787749 119.92665863 1415.05845833 C121.57110704 1448.25244376 122.10547422 1481.38739647 122.04589844 1514.62011719 C122.03444423 1521.06873185 122.04133323 1527.51718246 122.05277634 1533.9657917 C122.09666475 1563.10445925 121.73347988 1592.12486555 119.78515625 1621.203125 C119.67173889 1622.93970367 119.67173889 1622.93970367 119.55603027 1624.71136475 C119.12509009 1631.17435747 118.61537759 1637.62691315 118.03515625 1644.078125 C117.9521225 1645.01661285 117.86908875 1645.95510071 117.78353882 1646.92202759 C115.91380289 1667.80511616 113.14655199 1688.51075635 109.78515625 1709.203125 C109.62960266 1710.16118042 109.47404907 1711.11923584 109.31378174 1712.10632324 C94.98137357 1799.86775677 73.86463373 1886.75662704 46.90509033 1971.49035645 C45.36151117 1976.34813999 43.86894617 1981.21762408 42.41015625 1986.1015625 C42.0555835 1987.26840576 41.70101074 1988.43524902 41.33569336 1989.63745117 C40.70884313 1991.70139465 40.09364559 1993.76894226 39.49438477 1995.84106445 C37.26638685 2003.04913886 34.23404637 2007.95584288 27.84765625 2012.1171875 C24.32684382 2013.36563885 21.51649918 2013.60267331 17.78515625 2013.578125 C16.60953125 2013.58585937 15.43390625 2013.59359375 14.22265625 2013.6015625 C8.22402723 2012.90626686 4.07797892 2010.46205944 0.27685547 2005.70849609 C-3.31558973 1999.67483445 -5.08595014 1992.68657494 -7.15234375 1986.015625 C-7.71020943 1984.25421539 -8.26865602 1982.49298967 -8.82763672 1980.73193359 C-20.43535878 1943.89290854 -30.76548883 1906.6499443 -40.21484375 1869.203125 C-40.44969482 1868.2759668 -40.6845459 1867.34880859 -40.92651367 1866.39355469 C-64.19020369 1774.52500089 -82.14174286 1681.96835395 -87.21484375 1587.203125 C-87.28687012 1585.89118164 -87.35889648 1584.57923828 -87.43310547 1583.22753906 C-90.74650212 1519.36775103 -87.34129406 1455.09351427 -82.4597168 1391.41381836 C-82.23576149 1388.47739141 -82.01822288 1385.54057364 -81.80273438 1382.60351562 C-79.80062296 1355.70327077 -75.86556903 1329.11266627 -71.74365234 1302.47070312 C-68.54189867 1281.89336524 -68.54189867 1281.89336524 -66.21484375 1261.203125 C-66.10672363 1260.09291992 -65.99860352 1258.98271484 -65.88720703 1257.83886719 C-64.74807861 1244.08640859 -64.96753551 1230.24252825 -64.96484375 1216.453125 C-64.96454918 1215.76165123 -64.96425461 1215.07017746 -64.96395111 1214.35774994 C-64.96244885 1192.5035893 -65.37055716 1170.89447075 -68.21484375 1149.203125 C-68.31194641 1148.4464856 -68.40904907 1147.68984619 -68.50909424 1146.91027832 C-73.74426408 1106.26426605 -82.84365365 1066.77515788 -93.13598633 1027.1550293 C-107.31979636 972.45443375 -107.31979636 972.45443375 -105.21484375 958.203125 C-103.14526872 954.8534586 -100.58889209 953.15451322 -97.21484375 951.203125 C-96.38597656 950.72101562 -95.55710937 950.23890625 -94.703125 949.7421875 C-93.86136719 949.25492188 -93.01960938 948.76765625 -92.15234375 948.265625 C-75.52858677 938.617227 -69.1051924 917.11411232 -64.31640625 899.56640625 C-57.30789263 872.48255614 -57.89281317 845.76633901 -72.21484375 821.203125 C-75.21028958 816.58093447 -78.61484146 812.36432168 -82.21484375 808.203125 C-82.77558594 807.54183594 -83.33632813 806.88054688 -83.9140625 806.19921875 C-113.50339954 774.07578232 -163.95620054 768.71760756 -204.85400391 766.9543457 C-220.01282185 766.3346937 -235.1506639 766.01674955 -250.32202148 766.01782227 C-253.7805593 766.01562296 -257.238783 765.9973104 -260.69726562 765.97851562 C-281.30814575 765.92617417 -301.79347821 767.17143192 -322.21484375 770.015625 C-323.45556641 770.18594238 -324.69628906 770.35625977 -325.97460938 770.53173828 C-363.55419918 775.84897265 -404.04729367 783.50341209 -432.43359375 810.79296875 C-437.99654541 815.19697215 -444.46872909 814.75608522 -451.21484375 814.203125 C-461.36383054 811.21812888 -468.36645788 799.976951 -473.21484375 791.203125 C-482.47061585 773.57849754 -486.64766157 755.61582633 -486.58984375 735.765625 C-486.58929993 735.06169617 -486.5887561 734.35776733 -486.5881958 733.63250732 C-486.54620425 721.77443002 -485.49139919 710.63314593 -482.21484375 699.203125 C-482.01117188 698.46562012 -481.8075 697.72811523 -481.59765625 696.96826172 C-474.72232962 672.65528184 -462.33474636 649.7743793 -445.21484375 631.203125 C-444.32925781 630.23503906 -443.44367188 629.26695312 -442.53125 628.26953125 C-436.02058423 621.45648332 -429.15773376 616.20766485 -421.21484375 611.203125 C-420.50714844 610.72617187 -419.79945313 610.24921875 -419.0703125 609.7578125 C-412.69377241 605.91846415 -405.02469622 606.11518218 -397.91796875 607.72265625 C-391.27009643 610.42169241 -387.46892318 616.72317019 -383.21484375 622.203125 C-360.09385959 649.62568761 -331.90391262 661.55116656 -296.7387085 664.73216248 C-290.18492234 665.26505409 -283.67493173 665.33713103 -277.10253906 665.31665039 C-275.85232971 665.31679642 -274.60212036 665.31694244 -273.31402588 665.3170929 C-269.92639012 665.31652062 -266.53881731 665.31154787 -263.15119267 665.30451894 C-259.59581251 665.29821557 -256.04043127 665.29767613 -252.48504639 665.29649353 C-245.7705707 665.29340062 -239.05611154 665.28521507 -232.3416431 665.27514404 C-224.68975938 665.26391911 -217.03787482 665.25845646 -209.3859849 665.25344861 C-193.66226166 665.24303048 -177.93855484 665.22547104 -162.21484375 665.203125 C-163.18019547 664.51519363 -164.14554718 663.82726227 -165.14015198 663.1184845 C-166.41710127 662.20767635 -167.69403206 661.29684226 -168.97094727 660.38598633 C-169.60598427 659.93354805 -170.24102127 659.48110977 -170.89530182 659.01496124 C-195.26903054 641.62271457 -218.8078831 621.04879355 -238.21484375 598.203125 C-239.52001953 596.71425781 -239.52001953 596.71425781 -240.8515625 595.1953125 C-304.72197529 522.12747501 -345.65429497 424.94719734 -344.52734375 306.328125 C-339.19834623 236.111334 -310.63610891 169.2505261 -263.21484375 117.203125 C-262.59931641 116.52588379 -261.98378906 115.84864258 -261.34960938 115.15087891 C-253.98420565 107.08356486 -246.53105122 99.30417887 -238.21484375 92.203125 C-237.1605127 91.27581364 -236.10719273 90.34735191 -235.0546875 89.41796875 C-221.92451254 77.89756603 -207.94443744 67.58510716 -193.21484375 58.203125 C-192.64008301 57.83654785 -192.06532227 57.4699707 -191.47314453 57.09228516 C-179.79746713 49.71765072 -167.52296012 43.44323049 -155.21484375 37.203125 C-154.48604004 36.82800781 -153.75723633 36.45289063 -153.00634766 36.06640625 C-113.39973583 15.78222536 -68.1959493 5.74134796 -24.21484375 1.203125 C-23.40540817 1.11579605 -22.5959726 1.0284671 -21.76200867 0.93849182 C-14.49944402 0.20719538 -7.296151 0.02655194 0 0 Z M-132.52734375 217.265625 C-167.44005793 253.08960088 -187.12995063 301.8914871 -192.21484375 351.203125 C-192.32570313 352.15445313 -192.4365625 353.10578125 -192.55078125 354.0859375 C-199.54460975 424.96933447 -174.77382003 489.352249 -131.21484375 544.203125 C-130.49039063 545.12867188 -129.7659375 546.05421875 -129.01953125 547.0078125 C-110.52080262 570.44952126 -89.77382227 594.91840914 -65.21484375 612.203125 C-63.62929688 613.33041016 -63.62929688 613.33041016 -62.01171875 614.48046875 C-59.37182214 616.45598972 -59.37182214 616.45598972 -56.46484375 616.140625 C-53.88549051 615.31002035 -53.88549051 615.31002035 -52.21484375 612.203125 C-51.90947882 609.23639069 -51.90947882 609.23639069 -51.95605469 605.81420898 C-51.95255005 605.16968781 -51.94904541 604.52516663 -51.94543457 603.8611145 C-51.93661614 601.72370694 -51.94247694 599.58662991 -51.94921875 597.44921875 C-51.94786967 595.9496301 -51.94592712 594.45004188 -51.94342041 592.95045471 C-51.94046699 589.79545967 -51.94476467 586.64057761 -51.95410156 583.4855957 C-51.96535095 579.49487551 -51.9588358 575.50442603 -51.94723225 571.51371574 C-51.86922661 540.07980498 -51.87710872 510.06597782 -75.21484375 486.203125 C-81.57353287 480.16330209 -88.64263854 475.02931701 -95.9375 470.1875 C-99.49746987 467.08550224 -100.96911541 463.88337557 -101.6484375 459.23828125 C-101.65709425 452.65049088 -101.35820098 448.4368394 -97.21484375 443.203125 C-93.0950224 440.14437994 -89.07691537 438.22495383 -84.27734375 436.453125 C-59.92314078 427.05612155 -38.85443903 411.16250826 -23.21484375 390.203125 C-22.41820312 389.16027344 -21.6215625 388.11742187 -20.80078125 387.04296875 C-13.98700072 377.94379614 -8.6057672 368.18902939 -3.21484375 358.203125 C0.7866216 350.82542327 3.52623153 345.95609991 11.78515625 343.203125 C19.15017916 342.53754515 25.77031654 342.5013841 31.78515625 347.203125 C35.93793569 351.86234096 38.33509413 357.22658914 41.06982422 362.81054688 C58.43280136 398.00000829 88.85529447 426.10260547 125.9453125 438.96484375 C130.08187131 440.76854271 132.95419329 443.05696919 135.59765625 446.703125 C137.57059938 452.51811528 137.86048534 458.45938669 136.15234375 464.40625 C133.33647242 469.86061493 128.29514048 472.90952897 123.3659668 476.28833008 C105.09565859 488.83832855 93.85440387 504.67187066 89.36328125 526.68359375 C87.71063916 536.74461083 87.60522927 546.65552555 87.58203125 556.8203125 C87.57920387 557.65782169 87.5763765 558.49533089 87.57346344 559.35821915 C87.55855923 563.77722735 87.54927041 568.19620356 87.54492188 572.61523438 C87.53940326 577.17841169 87.51527993 581.74129571 87.48694992 586.30438042 C87.46836253 589.81990439 87.46312037 593.33535648 87.461586 596.85092545 C87.45855772 598.53427892 87.45052329 600.21763108 87.43740082 601.90093613 C87.42039736 604.2465275 87.42220443 606.5913842 87.42871094 608.93701172 C87.41949615 609.63209335 87.41028137 610.32717499 87.40078735 611.0433197 C87.426628 614.0082891 87.45076178 615.77386632 89.30743408 618.15725708 C89.7950824 618.50239349 90.28273071 618.84752991 90.78515625 619.203125 C102.77739303 616.42231647 110.94781553 607.38766817 119.34765625 598.890625 C120.1775708 598.05611816 121.00748535 597.22161133 121.86254883 596.36181641 C126.86500023 591.2849223 131.57785897 586.15042878 135.9609375 580.52734375 C137.77288967 578.21875373 139.68235885 576.05791197 141.66015625 573.890625 C146.45890135 568.54399168 150.83185098 562.87707578 155.22851562 557.20117188 C156.85484073 555.11368056 158.498109 553.0404196 160.14453125 550.96875 C168.00085918 541.04253743 175.29382431 530.84381303 182.34375 520.33203125 C183.64643862 518.40800605 184.97161556 516.50411205 186.31640625 514.609375 C208.64946199 483.09835114 216.11396154 447.72685599 223.34707642 410.45040894 C223.77761487 408.24181114 224.21688529 406.03507921 224.65698242 403.82836914 C226.104123 396.48192083 227.32413889 389.25675687 227.59765625 381.765625 C227.65119263 380.39555298 227.65119263 380.39555298 227.70581055 378.99780273 C229.13398398 327.00789536 212.14310537 271.45431954 178.78515625 231.203125 C178.05546631 230.32116455 178.05546631 230.32116455 177.31103516 229.42138672 C160.5039779 209.23050148 141.08533964 193.35127412 117.78515625 181.203125 C117.13240723 180.86039551 116.4796582 180.51766602 115.80712891 180.16455078 C35.20426442 138.4555134 -68.03197617 154.27014969 -132.52734375 217.265625 Z " fill="#000000" transform="translate(486.21484375,-0.203125)"/>
</svg>
