<?xml version="1.0" standalone="no"?>
<!DOCTYPE svg PUBLIC "-//W3C//DTD SVG 20010904//EN"
 "http://www.w3.org/TR/2001/REC-SVG-20010904/DTD/svg10.dtd">
<svg version="1.0" xmlns="http://www.w3.org/2000/svg"
 width="206.000000pt" height="308.000000pt" viewBox="0 0 206.000000 308.000000"
 preserveAspectRatio="xMidYMid meet">

<g transform="translate(0.000000,308.000000) scale(0.100000,-0.100000)"
fill="#000000" stroke="none">
<path d="M670 3073 c-156 -24 -301 -116 -380 -240 -126 -198 -77 -491 115
-689 l72 -74 -114 0 c-124 0 -166 13 -210 64 -36 41 -88 9 -129 -79 -29 -61
-31 -127 -5 -175 23 -44 40 -47 93 -16 62 35 147 49 289 44 142 -4 188 -20
226 -77 38 -57 24 -158 -28 -200 l-22 -17 29 -115 c25 -99 29 -133 29 -259 0
-80 -6 -203 -14 -274 -16 -153 -10 -388 14 -521 17 -92 73 -318 97 -390 15
-45 49 -60 66 -28 17 32 72 235 99 363 38 186 44 468 13 674 -25 171 -23 203
22 410 l30 139 -26 21 c-31 26 -46 64 -46 117 0 66 23 97 96 130 58 26 73 29
175 29 140 0 229 -15 275 -46 46 -32 60 -30 80 8 30 57 6 160 -58 251 -24 33
-48 34 -77 3 -47 -50 -113 -64 -268 -58 l-52 2 73 73 c121 124 186 274 186
435 0 239 -167 435 -415 487 -65 14 -176 18 -235 8z m214 -253 c116 -44 194
-151 204 -278 5 -79 -16 -175 -54 -239 -28 -48 -131 -163 -146 -163 -6 0 -9
33 -7 86 4 82 5 87 37 115 44 40 41 60 -13 87 -26 13 -57 39 -75 64 -58 83
-59 84 -105 17 -17 -24 -53 -59 -81 -77 -27 -19 -51 -38 -52 -43 -2 -5 12 -27
32 -49 35 -39 36 -42 36 -120 0 -76 -1 -80 -19 -71 -36 20 -122 126 -153 191
-57 118 -49 271 21 367 84 116 240 163 375 113z"/>
<path d="M1720 3064 c-73 -32 -102 -79 -110 -179 -5 -65 -7 -70 -30 -73 -43
-6 -50 -20 -50 -96 1 -154 98 -262 246 -274 54 -4 71 -1 127 26 64 29 97 62
131 129 20 41 23 185 3 202 -8 6 -78 12 -182 13 l-169 3 3 59 c3 66 19 97 57
114 62 29 128 -3 146 -73 11 -42 14 -45 45 -45 34 0 37 4 33 55 -8 110 -143
185 -250 139z m104 -370 c20 -19 20 -33 0 -95 -19 -57 -50 -68 -59 -21 -4 15
-10 35 -16 44 -13 26 -11 49 8 70 20 22 46 23 67 2z"/>
</g>
</svg>
