<?xml version="1.0" encoding="UTF-8"?>
<svg version="1.1" xmlns="http://www.w3.org/2000/svg" width="1000" height="1423">
<path d="M0 0 C1.08384979 0.00304138 2.16769958 0.00608276 3.28439331 0.00921631 C20.93930717 0.08214036 38.01640449 0.98535627 55.375 4.4375 C56.43750977 4.64648926 57.50001953 4.85547852 58.59472656 5.07080078 C98.87780994 13.29120988 137.24499702 29.5988747 169.375 55.4375 C170.18227539 56.07341064 170.18227539 56.07341064 171.00585938 56.72216797 C185.95978236 68.54134002 199.963352 82.35118083 211.171875 97.78564453 C212.39584766 99.46612323 213.64865188 101.12192414 214.90625 102.77734375 C221.67452651 111.81385829 227.16728002 121.4342922 232.375 131.4375 C232.72804199 132.10555664 233.08108398 132.77361328 233.44482422 133.46191406 C262.01122299 188.13326987 262.31083245 253.57758133 244.3125 311.50390625 C226.29175355 367.49562102 192.65386128 421.37967092 145.375 457.4375 C144.2351049 458.32087674 143.0958154 459.20503532 141.95703125 460.08984375 C137.45742839 463.5761063 132.93087601 467.02501884 128.375 470.4375 C139.07764885 470.48428278 149.78027252 470.51959864 160.48300362 470.54112434 C165.45517773 470.55146671 170.42728081 470.56544633 175.39941406 470.58837891 C213.36301865 471.55835237 213.36301865 471.55835237 250.375 464.4375 C251.29410156 464.13972656 252.21320312 463.84195312 253.16015625 463.53515625 C267.31371843 458.43812381 278.4222343 447.32827217 287.62084961 435.77880859 C290.81415218 431.82962074 292.90014061 429.75900741 297.9609375 429.1015625 C298.88132812 429.08867187 299.80171875 429.07578125 300.75 429.0625 C301.66523437 429.03414063 302.58046875 429.00578125 303.5234375 428.9765625 C307.88596111 429.68173755 310.85706811 431.6035443 313.68603516 435.02148438 C315.0329415 436.93295286 316.27604544 438.88255871 317.5 440.875 C317.96519043 441.6165332 318.43038086 442.35806641 318.90966797 443.12207031 C320.41766681 445.54913943 321.89921288 447.99072504 323.375 450.4375 C324.13103516 451.68007568 324.13103516 451.68007568 324.90234375 452.94775391 C342.37601594 481.86490288 356.90515728 515.27934866 350.72265625 549.8515625 C348.22205302 559.53200932 343.21266296 570.13490222 334.375 575.4375 C329.4707971 576.85926891 324.84720521 577.038447 320.16015625 574.7109375 C317.90860487 573.10479801 316.19199321 571.21582969 314.3125 569.1875 C292.52338558 546.63064833 243.94872285 543.33987295 214.40478516 542.3366394 C211.37104296 542.29076629 208.33877312 542.27278503 205.3046875 542.26953125 C204.18474396 542.26620285 203.06480042 542.26287445 201.91091919 542.25944519 C199.54950364 542.25441393 197.18808106 542.25203568 194.82666016 542.25219727 C191.30748945 542.25003532 187.7886457 542.23190619 184.26953125 542.21289062 C146.1382411 542.11701958 102.19867205 542.75900935 72.99609375 570.71484375 C60.6585098 583.59519789 56.36876703 598.06535366 56.0625 615.4375 C56.45245968 632.78222816 58.17643723 653.71895912 70 667.3046875 C73.70785651 670.75505398 77.74133575 672.70295186 82.45703125 674.48046875 C84.375 675.4375 84.375 675.4375 86.375 678.4375 C87.66674556 688.80260296 85.18336192 698.94105696 83 709 C82.64127283 710.70124394 82.28338328 712.40266469 81.92626953 714.10424805 C79.39218445 726.08861019 76.64969645 738.02388481 73.89425659 749.9588623 C73.68165192 750.87993774 73.46904724 751.80101318 73.25 752.75 C73.03699249 753.67268677 72.82398499 754.59537354 72.60452271 755.54602051 C65.31164151 787.23537115 58.50534706 820.05150603 58.1015625 852.66796875 C58.08263443 854.07820061 58.08263443 854.07820061 58.06332397 855.516922 C57.81911849 878.12544683 59.00975736 899.22846626 63.375 921.4375 C73.45678111 973.07914067 74.62041927 1023.92151354 74.6875 1076.375 C74.6895343 1077.4440004 74.6915686 1078.51300079 74.69366455 1079.61439514 C74.74135447 1105.95717956 74.43105686 1132.16587875 72.375 1158.4375 C72.3041922 1159.35584625 72.2333844 1160.2741925 72.16043091 1161.22036743 C71.77712996 1166.03309676 71.30023456 1170.82798031 70.75 1175.625 C70.6701889 1176.33099335 70.59037781 1177.03698669 70.50814819 1177.76437378 C62.17613341 1250.49836839 43.87105359 1322.60729526 22.375 1392.4375 C22.1513678 1393.16555847 21.9277356 1393.89361694 21.69732666 1394.64373779 C20.4126543 1398.81448315 19.09723589 1402.97393347 17.75 1407.125 C17.45552979 1408.04506836 17.16105957 1408.96513672 16.85766602 1409.91308594 C15.08548057 1415.16792437 13.24229158 1419.48036529 8.4921875 1422.72265625 C5.76663514 1423.64290732 3.37591034 1423.81279838 0.5 1423.875 C-0.50804687 1423.91496094 -1.51609375 1423.95492188 -2.5546875 1423.99609375 C-6.54866101 1423.2694548 -8.93140465 1421.35641721 -11.625 1418.4375 C-12.87729674 1415.97155766 -13.79727271 1413.85033313 -14.6484375 1411.26171875 C-14.89330902 1410.56382736 -15.13818054 1409.86593597 -15.39047241 1409.14689636 C-16.16125456 1406.91818812 -16.89825802 1404.68092882 -17.625 1402.4375 C-17.8583606 1401.72160706 -18.09172119 1401.00571411 -18.33215332 1400.26812744 C-20.04862731 1394.95151253 -21.66166695 1389.60609159 -23.25 1384.25 C-23.50411652 1383.39680176 -23.75823303 1382.54360352 -24.02005005 1381.66455078 C-45.51977068 1309.32339669 -63.62361795 1234.87326165 -70.9375 1159.625 C-71.01899292 1158.78662598 -71.10048584 1157.94825195 -71.18444824 1157.08447266 C-71.41695431 1154.65450215 -71.64208732 1152.22399343 -71.86328125 1149.79296875 C-71.92653091 1149.1129631 -71.98978058 1148.43295746 -72.0549469 1147.73234558 C-73.33665129 1133.10226486 -73.79158905 1118.48758727 -73.828125 1103.80859375 C-73.83506409 1102.06159443 -73.84205917 1100.31459533 -73.84910583 1098.56759644 C-73.86828434 1093.00339499 -73.87302557 1087.4392306 -73.875 1081.875 C-73.87610464 1080.45358011 -73.87610464 1080.45358011 -73.8772316 1079.00344467 C-73.89591352 1049.49993363 -73.31958456 1020.21039991 -70.81774902 990.79736328 C-70.57600009 987.83758474 -70.37399631 984.87603648 -70.17724609 981.91297913 C-68.86828124 962.31189529 -65.99149575 943.03068071 -63.01577759 923.62149048 C-60.30558909 905.88142038 -58.08346722 888.40001071 -57.625 870.4375 C-57.59470703 869.49390625 -57.56441406 868.5503125 -57.53320312 867.578125 C-56.02297924 815.42014894 -67.71427613 764.83106088 -80.58813477 714.67895508 C-88.79703344 682.5841093 -88.79703344 682.5841093 -85.25 675.8125 C-82.80236254 673.59797087 -80.60869372 672.23086259 -77.75 670.625 C-65.99168879 663.75594265 -61.10221593 649.61938022 -57.76416016 636.94921875 C-52.79102386 616.88665182 -52.79454649 598.34588619 -63.50927734 580.15576172 C-75.86756503 561.12345783 -97.3526195 551.65237181 -118.76611328 546.96923828 C-167.07518615 537.18860385 -221.79583093 539.69202666 -269.625 550.4375 C-270.48722168 550.63069824 -271.34944336 550.82389648 -272.23779297 551.02294922 C-289.23253878 554.96203883 -303.87372383 562.18176456 -317.15234375 573.61328125 C-320.86089212 576.34928771 -324.09879944 576.60166271 -328.625 576.4375 C-335.5984607 574.72472018 -339.52434307 570.16873311 -343.625 564.4375 C-355.81964694 544.06351669 -359.06280123 519.8315804 -353.46118164 496.78295898 C-346.83309238 471.8737658 -332.77816106 447.34792493 -311.125 432.75 C-305.38923395 429.42857543 -300.18686737 427.69845349 -293.625 429.4375 C-288.85162008 432.0866009 -285.65848751 435.46208689 -282.3125 439.6875 C-267.74913823 457.4019696 -249.40267657 466.94033483 -226.625 469.4375 C-214.93331167 470.48797855 -203.29661696 470.56983506 -191.56640625 470.53515625 C-189.68212421 470.53328612 -187.79784167 470.53186504 -185.91355896 470.53086853 C-181.00644537 470.52709015 -176.09936241 470.51730109 -171.19226074 470.50616455 C-166.16398533 470.49584857 -161.13570487 470.49134931 -156.10742188 470.48632812 C-146.27993462 470.47567357 -136.45246988 470.45865498 -126.625 470.4375 C-127.57109131 469.76638184 -128.51718262 469.09526367 -129.49194336 468.40380859 C-130.75379496 467.50625725 -132.0155922 466.60862948 -133.27734375 465.7109375 C-133.89847046 465.27064209 -134.51959717 464.83034668 -135.1595459 464.37670898 C-154.9201438 450.30368717 -173.83140763 432.67670502 -188.625 413.4375 C-189.65199221 412.12732854 -190.67936466 410.81745507 -191.70703125 409.5078125 C-235.71541101 353.08747688 -263.17417505 279.49122127 -254.60693359 207.23925781 C-254.30580787 204.96726174 -253.97352836 202.70269465 -253.625 200.4375 C-253.50141113 199.6232959 -253.37782227 198.8090918 -253.25048828 197.97021484 C-244.12141386 140.13061243 -211.7530918 87.21227852 -164.625 52.4375 C-163.51814098 51.60037701 -162.41136963 50.76313808 -161.3046875 49.92578125 C-131.72562714 27.87420976 -96.61327845 13.39734081 -60.6875 5.6875 C-59.83317383 5.50098877 -58.97884766 5.31447754 -58.09863281 5.12231445 C-38.85856709 1.22782603 -19.59164574 -0.11771756 0 0 Z M-107.95703125 156.7265625 C-128.12801531 177.87883768 -140.70037643 206.88879393 -145.625 235.4375 C-145.80232666 236.44586914 -145.97965332 237.45423828 -146.16235352 238.49316406 C-147.67133044 247.89220323 -147.98441621 257.07128631 -147.9375 266.5625 C-147.93567719 267.33029785 -147.93385437 268.0980957 -147.93197632 268.88916016 C-147.88384097 280.95843348 -147.27585239 292.62346493 -144.625 304.4375 C-144.45871094 305.20835937 -144.29242188 305.97921875 -144.12109375 306.7734375 C-138.51571945 332.10142506 -127.24429746 354.84035509 -111.625 375.4375 C-110.80338344 376.53645686 -109.98176885 377.63541519 -109.16015625 378.734375 C-103.27148799 386.5478937 -97.03858997 394.05104844 -90.625 401.4375 C-89.88636719 402.28957031 -89.14773438 403.14164062 -88.38671875 404.01953125 C-79.92841843 413.59117275 -71.04041492 422.74169122 -61.125 430.8125 C-60.26225464 431.53651001 -60.26225464 431.53651001 -59.38208008 432.27514648 C-56.71196429 434.37933724 -55.24233298 435.46972342 -51.78125 435.2890625 C-49.67899034 434.6241376 -49.67899034 434.6241376 -48.625 433.4375 C-48.52139783 431.94657692 -48.48648765 430.45080191 -48.47973633 428.95629883 C-48.47335648 428.00052444 -48.46697662 427.04475006 -48.46040344 426.06001282 C-48.45929062 425.0154039 -48.4581778 423.97079498 -48.45703125 422.89453125 C-48.45370285 421.81934738 -48.45037445 420.74416351 -48.44694519 419.63639832 C-48.44186593 417.34720285 -48.43953717 415.05799993 -48.43969727 412.76879883 C-48.43753742 409.30992839 -48.41946724 405.8513909 -48.40039062 402.39257812 C-48.34398362 380.63140601 -48.835142 360.31491266 -65.0859375 343.9609375 C-68.90493637 340.44745854 -72.82952072 337.2480367 -77.0625 334.25 C-80.50370662 331.70044206 -82.38175491 329.6645333 -83.625 325.4375 C-83.88614627 320.68632266 -83.59683389 317.63053489 -80.53125 313.8671875 C-77.28191033 311.15066965 -74.02039328 309.64309897 -70.125 308.125 C-57.05942095 302.67752059 -46.57802712 295.38355232 -36.625 285.4375 C-35.77164063 284.60734375 -34.91828125 283.7771875 -34.0390625 282.921875 C-25.52461776 274.16569523 -19.79942804 263.68008944 -13.73828125 253.1640625 C-13.22652344 252.28492188 -12.71476563 251.40578125 -12.1875 250.5 C-11.77628906 249.76910156 -11.36507812 249.03820312 -10.94140625 248.28515625 C-8.60103231 245.00029906 -6.3011706 243.62311546 -2.4375 242.5625 C2.26177158 242.40842552 6.4024079 242.79144484 10.375 245.4375 C12.27805561 247.97071404 13.82155847 250.67982383 15.375 253.4375 C15.76703613 254.12013916 16.15907227 254.80277832 16.56298828 255.50610352 C17.34876484 256.87769141 18.1315281 258.25100969 18.91137695 259.62597656 C23.42503604 267.52556096 28.19736065 274.71073715 34.375 281.4375 C34.84776367 281.95795898 35.32052734 282.47841797 35.80761719 283.01464844 C47.92782977 296.21909729 61.91252765 304.65615925 78.46484375 311.4453125 C81.3967124 312.96820542 82.99760209 314.77705366 84.625 317.625 C85.62640598 321.38027241 85.59657359 324.73065602 84.375 328.4375 C81.57820207 332.56047911 78.11804504 335.30675768 74.125 338.1875 C61.15388803 347.92535423 53.64973665 359.10643343 50.96606445 375.32104492 C49.64109105 385.13870833 50.01108534 395.14960994 50.09375 405.03320312 C50.12533457 408.85296243 50.13477377 412.6723096 50.140625 416.4921875 C50.14977998 418.91927592 50.16015089 421.34636013 50.171875 423.7734375 C50.17824982 425.48725113 50.17824982 425.48725113 50.18475342 427.23568726 C50.19436096 428.28503448 50.20396851 429.33438171 50.21386719 430.41552734 C50.22069519 431.33989594 50.22752319 432.26426453 50.23455811 433.21664429 C50.23265687 435.47770812 50.23265687 435.47770812 51.375 437.4375 C60.59066458 436.97671677 67.19989843 428.94827484 73.3125 422.75 C74.01415283 422.04230469 74.71580566 421.33460938 75.4387207 420.60546875 C80.79214746 415.14974721 85.66357874 409.45538123 90.375 403.4375 C91.36262829 402.23559739 92.35377003 401.03657667 93.34765625 399.83984375 C101.48268869 390.02148915 109.06743632 379.88464458 116.375 369.4375 C116.84599121 368.76799316 117.31698242 368.09848633 117.80224609 367.40869141 C131.87219987 347.30228982 138.52470738 326.43436354 143.67724609 302.61035156 C144.2996076 299.78032701 144.96443182 296.96498907 145.64453125 294.1484375 C150.45302937 273.24477078 150.30656937 250.32966482 145.375 229.4375 C145.18164062 228.61556152 144.98828125 227.79362305 144.7890625 226.94677734 C135.7335844 189.86543298 115.16126576 155.1280044 82.375 134.4375 C20.5873927 97.18749429 -56.82728141 106.53890185 -107.95703125 156.7265625 Z " fill="#000000" transform="translate(496.625,-0.4375)"/>
<path d="M0 0 C6.47025809 2.24478342 9.20912755 8.22909079 12.12109375 14.09375 C18.14614417 26.80982046 22.95291571 40.04517639 27.8710022 53.21620178 C38.98313695 91.10942421 38.98313695 91.10942421 61.0625 121.0625 C63.66453813 121.94288884 66.08983444 122.64899024 68.75 123.25 C69.40677734 123.41435547 70.06355469 123.57871094 70.74023438 123.74804688 C79.25591021 125.78029029 87.96694796 126.20824766 96.6875 126.5625 C97.65751953 126.60383057 98.62753906 126.64516113 99.62695312 126.68774414 C107.33098189 126.98645097 115.03377656 127.14571337 122.7421875 127.27734375 C123.78718414 127.29596466 124.83218079 127.31458557 125.90884399 127.33377075 C131.20688937 127.42772758 136.50479803 127.51264923 141.80322266 127.58203125 C177.12290759 128.12290759 177.12290759 128.12290759 183.0625 134.0625 C183.62235099 138.07476546 183.37096257 139.64135184 180.9453125 142.953125 C178.15790909 146.12840518 174.98940268 148.67249038 171.5625 151.125 C170.91724365 151.59196289 170.2719873 152.05892578 169.60717773 152.54003906 C161.64649183 158.20288172 153.28471803 163.22992458 144.94384766 168.30615234 C108.65477651 187.51855431 108.65477651 187.51855431 82.0625 217.0625 C81.23569653 224.28702384 82.38975208 231.25776523 84.08203125 238.265625 C84.30309036 239.20641907 84.52414948 240.14721313 84.75190735 241.11651611 C87.19623572 251.1609795 90.40187144 260.93900768 93.70846558 270.72692871 C95.5016009 276.03913611 97.25861596 281.36325463 99.015625 286.6875 C99.36370712 287.74080505 99.71178925 288.79411011 100.07041931 289.8793335 C103.22628836 299.47190755 106.17390137 309.11814338 109 318.8125 C109.20700531 319.5195105 109.41401062 320.226521 109.62728882 320.95495605 C112.09379207 329.39907463 114.23857125 336.9771731 114.1875 345.8125 C114.19136719 346.49699219 114.19523437 347.18148438 114.19921875 347.88671875 C114.18922061 352.93577939 114.18922061 352.93577939 113.0625 354.0625 C95.04876289 354.35780717 76.71280671 332.73426674 63.78466797 321.55078125 C59.69274662 318.01458157 55.58352853 314.49850775 51.47265625 310.984375 C49.30426422 309.13046393 47.14588953 307.26605266 44.99609375 305.390625 C23.45935896 284.69694421 23.45935896 284.69694421 -3.0625 274.6875 C-13.90125485 277.51800286 -23.36382457 286.15104014 -31.9375 293.0625 C-32.86433594 293.80628906 -33.79117188 294.55007813 -34.74609375 295.31640625 C-42.43489911 301.55449362 -49.96680898 307.98165372 -57.50683594 314.39794922 C-61.30719386 317.63125058 -65.117218 320.85276064 -68.9375 324.0625 C-69.59266602 324.61341309 -70.24783203 325.16432617 -70.92285156 325.73193359 C-103.77056748 353.27939746 -103.77056748 353.27939746 -113.875 354.5625 C-114.885625 354.3975 -115.89625 354.2325 -116.9375 354.0625 C-119.64793621 349.99684569 -119.42737741 346.80864844 -118.57574463 342.03457642 C-118.06554724 339.79314198 -117.48993316 337.58042844 -116.8828125 335.36328125 C-116.54952438 334.12557732 -116.54952438 334.12557732 -116.20950317 332.86286926 C-113.84889126 324.35061715 -110.88090419 316.08590981 -107.77755737 307.82070923 C-106.7825856 305.17031435 -105.79938211 302.51578484 -104.81860352 299.86010742 C-102.06250207 292.40707813 -99.27806305 284.96478942 -96.48123169 277.52696228 C-82.47196248 246.27858316 -82.47196248 246.27858316 -82.4375 213.625 C-83.57535965 211.75914761 -83.57535965 211.75914761 -84.9375 210.0625 C-85.36675781 209.50691406 -85.79601562 208.95132813 -86.23828125 208.37890625 C-98.08825905 195.12040396 -117.49579495 186.94879051 -132.9309082 178.74584961 C-181.25903512 153.03658782 -181.25903512 153.03658782 -187.9375 140.0625 C-188.375 136.9375 -188.375 136.9375 -187.9375 134.0625 C-176.64776304 123.83970521 -150.55915199 127.9857843 -136.140625 128.03515625 C-134.93949318 128.0390612 -134.93949318 128.0390612 -133.71409607 128.04304504 C-126.17244713 128.06950433 -118.63088378 128.10841006 -111.08935547 128.15844727 C-106.92304862 128.18554251 -102.75679494 128.2023722 -98.59041595 128.21331596 C-97.02944701 128.21942326 -95.46848708 128.22929315 -93.90756989 128.24339485 C-72.28256642 129.27770541 -72.28256642 129.27770541 -53.42724609 121.60693359 C-50.02168241 117.63887921 -47.35445717 113.65088307 -45.1875 108.875 C-44.85443848 108.14909668 -44.52137695 107.42319336 -44.17822266 106.67529297 C-37.5009316 91.68288476 -32.49679956 75.9681831 -27.46875 60.36328125 C-27.1669986 59.42840881 -26.86524719 58.49353638 -26.55435181 57.53033447 C-25.05909603 52.89189884 -23.57508244 48.2503709 -22.11083984 43.60205078 C-19.33431994 34.86063576 -16.36864781 26.24061028 -12.8828125 17.75390625 C-12.57818085 16.99544907 -12.27354919 16.23699188 -11.95968628 15.45555115 C-9.47003795 9.57547947 -6.28892525 2.27471764 0 0 Z " fill="#000000" transform="translate(816.9375,688.9375)"/>
<path d="M0 0 C3.58407923 0.68924601 4.05071202 1.04140322 6.25 3.75 C12.84343466 13.81300506 16.45413513 25.70179438 20.1451416 37.06744385 C21.15950359 40.1876376 22.19044879 43.30228229 23.22021484 46.41741943 C24.02667376 48.8574479 24.83124781 51.29809274 25.63574219 53.73876953 C35.5579954 91.50364343 35.5579954 91.50364343 56.0625 123.0625 C67.46912452 128.65398261 81.2879791 127.76826896 93.6914196 127.70016479 C96.08795433 127.68717138 98.48443232 127.68082672 100.8809967 127.67602539 C106.83760515 127.66278987 112.79415975 127.63873626 118.75073242 127.61462402 C154.56398909 127.47239913 154.56398909 127.47239913 166.18359375 128.03515625 C167.30615822 128.08851135 167.30615822 128.08851135 168.45140076 128.14294434 C183.67368324 129.04868324 183.67368324 129.04868324 188.25 133.625 C188.75498743 137.32824113 188.45221708 139.24483189 186.6875 142.5625 C174.42749887 157.96609117 155.20746594 166.39712656 138.09765625 175.39453125 C104.07104702 190.73462769 104.07104702 190.73462769 81.25 217.625 C78.20571501 244.87506316 97.10558065 278.80360679 106.56477356 303.73599243 C114.50880916 324.67665396 114.50880916 324.67665396 117.375 335.375 C117.67591553 336.49237549 117.67591553 336.49237549 117.98291016 337.63232422 C119.0835627 342.04005372 119.5963211 346.08931079 119.25 350.625 C117.25 353.625 117.25 353.625 114.375 354.25 C103.39238614 353.68388588 92.40206887 342.28693184 84.25 335.625 C83.31285156 334.87089844 82.37570312 334.11679687 81.41015625 333.33984375 C75.66202495 328.68900623 70.04487202 323.89415992 64.44360352 319.06884766 C60.02400799 315.26817701 55.53641448 311.5610371 51.0078125 307.890625 C48.53244835 305.85703972 46.09711664 303.78325574 43.66992188 301.69262695 C24.58230843 283.69510634 24.58230843 283.69510634 1.47265625 274.1875 C-14.98169979 277.42631876 -29.48355106 292.50249782 -41.76171875 303.0703125 C-44.61757814 305.51179229 -47.51573092 307.88806639 -50.4375 310.25 C-53.96536923 313.11926557 -57.38719922 316.06405693 -60.75 319.125 C-65.40728842 323.35889856 -70.2221479 327.35290231 -75.12207031 331.30175781 C-76.965064 332.79981207 -78.79124743 334.31714823 -80.6171875 335.8359375 C-102.07907799 353.625 -102.07907799 353.625 -112.75 353.625 C-114.90849417 351.46650583 -114.1856413 347.47285674 -114.19117737 344.57524109 C-114.01796718 338.55441606 -112.85058457 333.07807734 -111.28125 327.27734375 C-111.01787338 326.28740921 -110.75449677 325.29747467 -110.48313904 324.27754211 C-106.76327088 310.61707875 -102.14860548 297.23614724 -97.63891602 283.8215332 C-83.33469935 249.52376612 -83.33469935 249.52376612 -82.73828125 214.23046875 C-94.86500641 194.72522912 -121.17039506 182.28776529 -140.2421875 170.6640625 C-177.01028511 148.23457233 -177.01028511 148.23457233 -182.75 139.625 C-183.125 136.625 -183.125 136.625 -182.75 133.625 C-179.20379501 129.30788089 -172.47846632 128.94477699 -167.23881531 128.33068848 C-160.82578102 127.73791485 -154.45790236 127.43873917 -148.01953125 127.34375 C-147.03385666 127.32574844 -146.04818207 127.30774689 -145.03263855 127.28919983 C-142.94667252 127.25117091 -140.86067749 127.21470413 -138.7746582 127.17971802 C-133.37690229 127.08776909 -127.97948025 126.97938994 -122.58203125 126.87109375 C-121.5362088 126.85022202 -120.49038635 126.82935028 -119.41287231 126.80784607 C-85.383377 128.38657173 -85.383377 128.38657173 -55.5 116.875 C-42.51038591 98.80249344 -35.73262838 75.27681322 -28.25 54.5625 C-24.7070036 44.76536815 -21.01182821 35.05322903 -17 25.4375 C-16.57654297 24.4055249 -16.15308594 23.3735498 -15.71679688 22.31030273 C-6.91768064 1.57220014 -6.91768064 1.57220014 0 0 Z " fill="#000000" transform="translate(182.75,689.375)"/>
</svg>
