<?xml version="1.0" standalone="no"?>
<!DOCTYPE svg PUBLIC "-//W3C//DTD SVG 20010904//EN"
 "http://www.w3.org/TR/2001/REC-SVG-20010904/DTD/svg10.dtd">
<svg version="1.0" xmlns="http://www.w3.org/2000/svg"
 width="270.000000pt" height="308.000000pt" viewBox="0 0 270.000000 308.000000"
 preserveAspectRatio="xMidYMid meet">

<g transform="translate(0.000000,308.000000) scale(0.100000,-0.100000)"
fill="#000000" stroke="none">
<path d="M930 3064 c-100 -21 -186 -69 -261 -143 -130 -130 -176 -291 -133
-471 30 -127 118 -270 215 -347 l42 -33 -116 0 c-132 0 -157 7 -209 57 l-37
36 -32 -19 c-47 -28 -92 -113 -92 -177 -1 -55 17 -103 45 -121 13 -7 28 -4 65
16 65 35 134 48 253 48 140 0 196 -14 243 -60 33 -34 37 -43 37 -88 0 -61 -13
-100 -45 -129 -23 -22 -23 -23 -8 -85 55 -234 62 -312 38 -468 -25 -159 -25
-477 -2 -615 29 -164 96 -414 118 -442 6 -7 20 -13 30 -13 14 0 24 18 43 79
38 121 64 228 86 356 25 147 28 458 5 609 -22 148 -19 229 17 403 l31 155 -27
22 c-34 27 -51 100 -36 155 23 87 102 121 281 121 137 0 205 -12 254 -46 45
-30 60 -30 81 1 27 41 15 131 -27 212 -43 82 -65 90 -115 42 -42 -41 -123 -59
-232 -52 l-77 6 76 76 c122 122 185 273 182 441 -4 329 -331 553 -693 474z
m292 -262 c101 -49 158 -138 166 -257 6 -94 -11 -169 -55 -243 -40 -68 -122
-162 -141 -162 -18 0 -15 125 4 165 9 19 27 41 40 50 34 22 30 42 -13 64 -40
20 -88 67 -116 114 -10 15 -24 27 -32 27 -8 0 -22 -12 -32 -27 -28 -47 -76
-94 -115 -114 -44 -22 -48 -42 -14 -64 13 -9 31 -34 40 -56 16 -38 22 -140 10
-152 -20 -19 -139 118 -178 204 -69 153 -25 345 98 427 107 71 225 80 338 24z"/>
<path d="M2369 3071 c-80 -26 -121 -84 -128 -185 -6 -66 -8 -71 -31 -74 -37
-5 -50 -29 -50 -92 0 -82 25 -146 80 -200 125 -126 326 -98 416 56 35 59 45
170 20 209 l-16 25 -170 0 -170 0 0 61 c0 56 3 64 34 95 41 41 78 44 127 11
23 -15 37 -35 45 -62 10 -37 14 -40 45 -40 29 0 34 4 37 25 4 35 -37 109 -79
142 -38 31 -113 44 -160 29z m91 -381 c24 -24 25 -38 6 -66 -8 -11 -16 -31
-18 -44 -5 -36 -42 -34 -46 2 -2 14 -10 32 -18 38 -21 18 -17 57 8 74 30 21
44 20 68 -4z"/>
<path d="M369 1563 c-6 -16 -22 -57 -36 -93 -56 -147 -60 -150 -212 -150 -152
0 -158 -19 -30 -95 118 -70 132 -85 124 -138 -4 -23 -20 -79 -36 -125 -31 -90
-36 -132 -16 -132 6 0 55 36 107 80 52 44 102 82 111 85 26 9 60 -9 122 -63
160 -141 176 -136 111 31 -51 131 -53 151 -18 188 16 17 61 46 99 66 76 38
105 59 105 78 0 19 -35 25 -162 25 l-118 0 -24 38 c-14 20 -30 57 -36 82 -22
84 -51 150 -66 150 -8 0 -19 -12 -25 -27z"/>
<path d="M1732 1538 c-11 -29 -25 -71 -32 -93 -19 -61 -47 -112 -65 -119 -9
-3 -68 -6 -130 -6 -119 0 -145 -4 -145 -25 0 -18 27 -38 120 -89 47 -26 91
-55 98 -64 18 -23 11 -61 -32 -176 -38 -101 -44 -136 -23 -136 7 0 60 38 116
85 57 47 107 85 112 85 26 0 70 -28 133 -84 66 -58 105 -86 121 -86 12 0 0 60
-35 177 l-34 113 30 31 c16 17 64 51 106 76 125 75 117 93 -46 93 l-109 0 -33
36 c-21 21 -40 57 -50 92 -22 75 -55 142 -70 142 -7 0 -21 -24 -32 -52z"/>
</g>
</svg>
